<svg version="1.1" xmlns="http://www.w3.org/2000/svg" viewBox="0 0 201.9354036755035 201.9354036755035" width="403.870807351007" height="403.870807351007">
  <!-- svg-source:excalidraw -->
  
  <defs>
    <style class="style-fonts">
      
    </style>
    
  </defs>
  <g stroke-linecap="round" transform="translate(10 10) rotate(0 90.96770183775175 90.96770183775175)"><path d="M32 0 C73.84 0, 115.68 0, 149.94 0 C171.27 0, 181.94 10.67, 181.94 32 C181.94 57.31, 181.94 82.62, 181.94 149.94 C181.94 171.27, 171.27 181.94, 149.94 181.94 C119.82 181.94, 89.7 181.94, 32 181.94 C10.67 181.94, 0 171.27, 0 149.94 C0 108.55, 0 67.17, 0 32 C0 10.67, 10.67 0, 32 0" stroke="none" stroke-width="0" fill="#46256d"></path><path d="M32 0 C77.92 0, 123.84 0, 149.94 0 M32 0 C57.55 0, 83.1 0, 149.94 0 M149.94 0 C171.27 0, 181.94 10.67, 181.94 32 M149.94 0 C171.27 0, 181.94 10.67, 181.94 32 M181.94 32 C181.94 70.62, 181.94 109.23, 181.94 149.94 M181.94 32 C181.94 66.23, 181.94 100.46, 181.94 149.94 M181.94 149.94 C181.94 171.27, 171.27 181.94, 149.94 181.94 M181.94 149.94 C181.94 171.27, 171.27 181.94, 149.94 181.94 M149.94 181.94 C123.57 181.94, 97.2 181.94, 32 181.94 M149.94 181.94 C119.23 181.94, 88.53 181.94, 32 181.94 M32 181.94 C10.67 181.94, 0 171.27, 0 149.94 M32 181.94 C10.67 181.94, 0 171.27, 0 149.94 M0 149.94 C0 122.36, 0 94.79, 0 32 M0 149.94 C0 124.95, 0 99.96, 0 32 M0 32 C0 10.67, 10.67 0, 32 0 M0 32 C0 10.67, 10.67 0, 32 0" stroke="#fcfcc5" stroke-width="4" fill="none"></path></g></svg>